# xmcd
#
# Track frame offsets: 
#        150
#        16945
#        29024
#        42586
#        52852
#        64571
#        76258
#        89472
#        105781
#        118514
#        129728
#        141219
#        152786
#        164800
#        178484
#        191627
#
# Disc length: 2735 seconds
#
# Revision: 1
# Processed by: cddbd v1.5.2PL0 Copyright (c) Steve Scherf et al.
# Submitted via: ExactAudioCopy v1.0b1
#
DISCID=db0aad10
DTITLE=Carla Thomas - The Queen Alone
DYEAR=1967
DGENRE=Soul
TTITLE0=Any Day Now
TTITLE1=Stop Thief
TTITLE2=I Take It To My Baby
TTITLE3=I Want To Be Your Baby
TTITLE4=Something Good (Is Going To Happen To You)
TTITLE5=When Tomorrow Comes
TTITLE6=I'll Always Have Faith In You
TTITLE7=All I See Is You
TTITLE8=Unchanging Love
TTITLE9=Give Me Enough (To Keep Me Going)
TTITLE10=Lie To Keep Me From Crying
TTITLE11=Me And My Clock
TTITLE12=Same Thing
TTITLE13=Your Love Indeed (alt)
TTITLE14=I Want To Know (take 2)
TTITLE15=I Wonder About Love
EXTD=
EXTT0=
EXTT1=
EXTT2=
EXTT3=
EXTT4=
EXTT5=
EXTT6=
EXTT7=
EXTT8=
EXTT9=
EXTT10=
EXTT11=
EXTT12=
EXTT13=
EXTT14=
EXTT15=
PLAYORDER=
